<svg version="1.1" id="Layer_1" xmlns="http://www.w3.org/2000/svg" xmlns:xlink="http://www.w3.org/1999/xlink" x="0px" y="0px"
	 width="100%" viewBox="0 0 1024 1024" enable-background="new 0 0 1024 1024" xml:space="preserve">
<path fill="#08b308ff" opacity="1.000000" stroke="none" 
	d="
M584.727661,788.813843 
	C564.090576,801.097595 543.582153,812.896179 523.518555,825.408142 
	C514.671631,830.925232 506.925323,831.150269 498.002625,825.801331 
	C465.855011,806.529968 433.457123,787.676697 401.203583,768.581299 
	C353.042694,740.068176 304.916748,711.495972 256.795532,682.915955 
	C249.781281,678.750183 242.878571,674.396790 235.918015,670.140320 
	C230.279648,666.692322 228.729538,661.286926 228.725586,655.147522 
	C228.715378,639.314819 228.576187,623.480042 228.805344,607.650696 
	C228.869064,603.249390 227.265884,600.771545 223.599915,598.439392 
	C203.504242,585.655212 183.564468,572.625000 163.636841,559.578979 
	C161.322144,558.063660 159.564835,557.631287 156.875717,559.011353 
	C139.952515,567.695862 120.677269,562.143555 111.371323,546.126465 
	C101.895592,529.817139 106.607750,510.414307 122.781555,499.798859 
	C125.573166,497.966583 126.948120,495.900909 126.942307,492.500061 
	C126.900452,468.002136 126.940552,443.503754 127.076508,419.006195 
	C127.095467,415.589722 125.137062,414.024261 122.669479,412.392761 
	C103.241295,399.547638 101.322281,373.861969 118.593460,358.519836 
	C136.171356,342.905334 165.485275,351.094635 172.335220,373.537567 
	C173.652664,377.853943 174.700806,382.214478 174.221161,386.787598 
	C173.999908,388.897247 174.261902,390.693878 176.408188,391.880463 
	C193.440567,401.297058 210.445236,410.763794 227.381973,420.172668 
	C229.423660,418.342224 228.616577,416.393250 228.620514,414.694061 
	C228.676941,390.361664 228.814590,366.027679 228.579773,341.697449 
	C228.502167,333.656616 231.868088,328.580536 238.972824,325.202332 
	C284.841248,303.392365 330.580597,281.308655 376.570709,259.759491 
	C383.658234,256.438568 386.116608,252.604523 385.962463,244.743546 
	C385.397247,215.921722 385.627167,187.083069 385.696808,158.251099 
	C385.710052,152.774429 384.218079,147.368301 385.432800,141.824448 
	C387.049683,134.445404 391.705414,130.129654 399.181824,129.708450 
	C400.843658,129.614822 402.514221,129.667160 404.180786,129.667206 
	C474.511749,129.668701 544.842712,129.669983 615.173706,129.676605 
	C628.362183,129.677841 634.147949,135.289139 634.163757,148.462418 
	C634.204163,182.125763 634.231262,215.790024 633.983154,249.451843 
	C633.949158,254.066376 635.642517,256.291412 639.559631,258.155487 
	C685.872070,280.194824 732.079163,302.456085 778.438599,324.395599 
	C786.701294,328.305908 790.460693,333.936066 790.354309,343.103302 
	C790.077820,366.932526 790.255371,390.767090 790.288940,414.599518 
	C790.291443,416.380310 789.787476,418.259277 790.921265,419.991974 
	C792.970825,420.689880 794.407043,419.223267 795.916748,418.393311 
	C811.534790,409.807129 827.068787,401.067078 842.735229,392.570923 
	C846.019653,390.789734 845.731262,388.161957 845.663330,385.342896 
	C845.318176,371.012909 852.081604,360.809784 864.342224,354.169189 
	C883.700256,343.684448 908.955200,357.419006 911.426086,379.224670 
	C913.104919,394.040833 907.941345,405.234283 895.537903,413.181396 
	C893.141541,414.716766 892.263916,416.512054 892.272644,419.318146 
	C892.349304,443.983673 892.362244,468.649902 892.228516,493.315033 
	C892.210754,496.589417 893.472778,498.346161 896.100220,500.110565 
	C908.272522,508.284668 914.033325,522.153564 910.912170,536.231689 
	C907.717896,550.639587 898.630493,559.491394 884.233154,562.748779 
	C877.069275,564.369690 870.202209,562.890503 864.022339,559.312012 
	C860.815613,557.455200 858.748901,557.964233 856.006470,559.853699 
	C835.840027,573.748047 815.224304,586.962097 794.391602,599.827881 
	C791.285156,601.746399 790.071106,603.753845 790.119629,607.381958 
	C790.342407,624.045471 790.138428,640.715210 790.417114,657.377197 
	C790.527771,663.986572 787.834656,668.317200 782.264709,671.616516 
	C728.387817,703.530090 674.571228,735.545349 620.730408,767.519653 
	C608.846985,774.576782 596.935608,781.586853 584.727661,788.813843 
M507.500061,158.352081 
	C478.353058,158.352570 449.206085,158.348618 420.059082,158.356842 
	C413.350189,158.358734 413.315948,158.377991 413.315247,164.889633 
	C413.309662,216.355194 413.312012,267.820770 413.329163,319.286316 
	C413.331604,326.695587 415.363312,328.677399 422.870148,328.677673 
	C480.498260,328.679840 538.126343,328.675171 595.754456,328.662720 
	C603.482300,328.661072 605.639587,326.571869 605.641724,318.998627 
	C605.656006,267.699585 605.654541,216.400543 605.643677,165.101501 
	C605.642273,158.504547 605.478760,158.357971 598.939636,158.356216 
	C568.793152,158.348160 538.646606,158.352798 507.500061,158.352081 
M286.762512,377.855469 
	C277.091644,372.913361 267.420776,367.971222 257.964691,363.138855 
	C256.105774,365.291595 256.369537,366.846893 256.368683,368.307159 
	C256.351227,398.467407 256.414154,428.627930 256.279205,458.787567 
	C256.262085,462.613678 257.902985,464.526093 261.118195,465.973846 
	C278.575745,473.834625 296.034760,481.695587 313.386841,489.784821 
	C317.470581,491.688599 319.942108,491.533539 322.912506,487.586517 
	C332.779053,474.476135 349.570496,472.632477 362.497559,478.569733 
	C375.378876,484.485992 383.263000,499.488647 379.945892,513.916016 
	C378.564636,519.923645 380.286987,522.778992 384.654358,525.864075 
	C419.619690,550.563110 454.505035,575.375427 489.436920,600.121948 
	C490.983856,601.217773 492.532532,603.241943 494.684021,601.972717 
	C496.502655,600.900024 495.915588,598.660889 495.918732,596.895264 
	C495.981628,561.237854 495.930786,525.580017 496.116364,489.923370 
	C496.140747,485.240784 494.435730,482.709808 490.285614,480.696533 
	C475.009125,473.285706 459.867004,465.595795 444.718353,457.924042 
	C392.276520,431.365662 339.853149,404.770813 286.762512,377.855469 
M666.043884,475.813293 
	C675.303528,475.165070 684.402588,475.135986 692.177124,481.481750 
	C695.166748,483.921967 697.938293,486.552399 700.232788,489.637146 
	C701.527954,491.378387 702.823425,491.923218 704.894287,490.932526 
	C723.069336,482.237793 741.264771,473.585602 759.474976,464.964630 
	C762.140686,463.702667 762.713989,461.687775 762.706421,458.903656 
	C762.622803,428.238831 762.660950,397.573700 762.618774,366.908661 
	C762.616882,365.538605 763.272949,363.860565 761.323425,362.742157 
	C759.103821,363.960175 756.808289,365.273590 754.466003,366.497406 
	C679.626343,405.601044 603.774597,442.713135 528.601746,481.162109 
	C525.220886,482.891357 524.104370,484.791534 524.144409,488.427032 
	C524.296570,502.257263 524.230286,516.091370 524.109253,529.922852 
	C523.918335,551.747437 523.607361,573.570862 523.376709,595.395142 
	C523.349426,597.976013 523.176941,600.635437 524.685974,602.866211 
	C526.668579,602.632263 527.717163,601.501526 528.920227,600.643555 
	C540.991760,592.034851 553.027771,583.375916 565.144958,574.831970 
	C588.696472,558.225586 612.254822,541.628174 635.912292,525.173645 
	C639.638916,522.581726 641.658142,520.032654 639.736084,515.340698 
	C638.532043,512.401672 638.631531,509.193115 639.049500,505.981262 
	C641.109802,490.149384 650.091248,480.426880 666.043884,475.813293 
M656.751831,297.875580 
	C649.318909,294.364624 641.885925,290.853638 633.351807,286.822540 
	C633.351807,295.818695 633.476990,303.608826 633.292480,311.391632 
	C633.214417,314.687195 634.308350,316.561646 637.423279,317.864563 
	C642.484741,319.981720 647.498352,322.308533 652.260681,325.023132 
	C659.129700,328.938629 659.294006,336.854279 652.822571,341.351624 
	C651.322998,342.393768 649.721313,343.309265 648.097595,344.149658 
	C605.662109,366.112946 563.135254,387.902100 520.849304,410.149323 
	C513.090515,414.231384 506.526276,413.655731 499.208954,409.825775 
	C466.163147,392.529236 433.040680,375.378662 399.904114,358.256287 
	C389.402588,352.829926 378.746460,347.703400 368.214050,342.335815 
	C364.645386,340.517151 361.727081,337.832458 361.969910,333.462433 
	C362.208588,329.166504 364.637817,326.037231 368.550262,324.131989 
	C370.646515,323.111176 372.627655,321.697418 374.833954,321.086670 
	C383.860535,318.587769 387.216583,312.882324 385.850220,303.692688 
	C385.111420,298.723846 386.182129,293.545441 384.856354,287.204224 
	C348.162903,304.868286 312.277649,322.143250 276.392395,339.418243 
	C276.488983,339.939606 276.585541,340.460968 276.682098,340.982330 
	C282.134888,343.764099 287.569672,346.581909 293.043335,349.321960 
	C336.964172,371.308258 380.917175,393.230469 424.809143,415.274231 
	C451.737030,428.798218 478.591858,442.468231 505.430603,456.168488 
	C508.571014,457.771576 511.237305,457.774597 514.350708,456.100433 
	C521.532898,452.238434 528.861389,448.647217 536.146606,444.978088 
	C598.315857,413.666931 660.487793,382.361053 722.661865,351.059418 
	C729.738098,347.496918 736.832275,343.970306 744.999390,339.886353 
	C715.029297,325.618469 686.230286,311.908051 656.751831,297.875580 
M618.582214,672.042908 
	C624.272461,668.922546 629.972778,665.820312 635.647949,662.672791 
	C637.860535,661.445618 639.913086,660.229126 639.556763,657.003235 
	C637.982422,642.750061 643.600952,632.068237 656.069153,625.116272 
	C659.023560,623.468994 659.717163,621.295532 659.706177,618.189026 
	C659.624084,595.034119 659.677612,571.878784 659.632568,548.723633 
	C659.629272,547.021118 660.294922,544.996765 658.225769,543.758484 
	C656.123169,544.047546 654.692749,545.530212 653.100403,546.672607 
	C642.142944,554.533875 631.263245,562.504395 620.256470,570.295593 
	C589.544434,592.035400 558.794678,613.722046 528.018738,635.371216 
	C525.500916,637.142273 524.175781,639.079285 524.180481,642.334961 
	C524.216248,667.320068 524.065430,692.305298 524.049683,717.290527 
	C524.048279,719.523926 523.603943,721.922607 525.511902,724.773621 
	C556.360229,707.301392 587.156433,689.858704 618.582214,672.042908 
M496.025299,676.500000 
	C496.031799,665.502319 495.969391,654.503845 496.083527,643.507324 
	C496.121552,639.841431 494.949402,637.293579 491.698425,635.261536 
	C486.623138,632.089172 481.842438,628.441956 476.967285,624.953552 
	C440.799316,599.073547 404.645020,573.174500 368.456512,547.323242 
	C366.784973,546.129150 365.066223,544.062622 362.710266,545.390869 
	C360.589203,546.586670 361.383972,548.986694 361.380127,550.896606 
	C361.335144,573.226257 361.456726,595.557068 361.251801,617.884949 
	C361.214630,621.933350 362.578674,624.196228 365.950592,626.278076 
	C375.967041,632.462402 381.227478,642.094788 380.770996,653.452515 
	C380.524933,659.574951 383.056061,661.499023 387.202911,663.859802 
	C419.768738,682.399536 452.264465,701.062561 484.858673,719.552063 
	C488.206573,721.451111 491.364990,724.000061 496.034058,724.833130 
	C496.034058,708.772583 496.034058,693.136292 496.025299,676.500000 
M326.064758,535.559204 
	C322.342133,532.582581 319.440125,528.944153 317.858093,524.445557 
	C317.008484,522.029602 315.545898,520.515076 313.280731,519.526794 
	C296.195526,512.072388 279.135223,504.560577 262.032928,497.145691 
	C257.801422,495.311096 256.395264,496.158508 256.389191,500.622803 
	C256.350739,528.947510 256.406921,557.272400 256.418640,585.597168 
	C256.420258,589.564026 257.935516,592.376282 261.464600,594.613647 
	C279.186737,605.849060 296.847412,617.186951 314.336212,628.780701 
	C318.409637,631.481140 321.431458,632.399780 324.832092,628.124817 
	C325.906708,626.773865 327.766479,625.898315 329.432098,625.198059 
	C332.818634,623.774048 333.871857,621.438110 333.849457,617.794556 
	C333.707092,594.635742 333.574707,571.472595 333.922516,548.318115 
	C334.013947,542.231323 332.691925,537.977905 326.064758,535.559204 
M761.698181,495.245270 
	C743.420166,503.604675 725.151306,511.984222 706.852844,520.298645 
	C704.494263,521.370361 703.445068,523.365723 702.478088,525.490967 
	C699.897461,531.162964 695.907654,535.555176 690.229736,538.096008 
	C687.094299,539.499084 686.302734,541.633850 686.311707,544.785095 
	C686.382263,569.586182 686.343933,594.387512 686.360535,619.188782 
	C686.362549,622.197327 697.341797,631.911621 700.262634,631.464478 
	C701.036926,631.345886 701.772705,630.796509 702.465332,630.350464 
	C721.066589,618.371521 739.609741,606.300903 758.300293,594.463074 
	C761.721924,592.295959 762.747681,589.771301 762.726929,585.878479 
	C762.582214,558.747681 762.670166,531.615662 762.622253,504.484222 
	C762.617004,501.514801 763.105957,498.507477 761.698181,495.245270 
M461.817169,771.624146 
	C472.844910,777.893127 483.434387,784.966797 495.971252,790.955078 
	C495.971252,781.879456 495.634552,773.903442 496.084137,765.972046 
	C496.409210,760.237488 494.364075,757.094971 489.295288,754.233521 
	C449.711731,731.888550 410.268219,709.293152 370.936676,686.507141 
	C366.478394,683.924316 362.970703,683.366333 358.059021,685.191528 
	C338.789032,692.352173 321.483582,683.412659 315.953003,663.832886 
	C315.374420,661.784607 314.644836,660.237122 312.705780,659.145508 
	C296.440033,649.989136 281.175690,639.241699 265.406769,629.294434 
	C262.919800,627.725647 260.587128,625.773987 256.463104,624.915222 
	C256.463104,631.620789 256.472382,637.997925 256.459869,644.375000 
	C256.451538,648.628662 258.388367,651.399719 262.185913,653.485901 
	C270.644714,658.132812 278.922791,663.112366 287.226746,668.036804 
	C345.220917,702.429077 403.202850,736.841980 461.817169,771.624146 
M652.781189,684.279053 
	C643.768188,689.643433 634.840698,695.158264 625.726807,700.345337 
	C592.884827,719.037354 559.982056,737.622620 527.094299,756.234009 
	C524.753540,757.558594 523.418091,759.126404 523.571716,762.174805 
	C523.948364,769.652649 523.871521,777.152649 524.048645,784.641968 
	C524.089111,786.355164 523.345276,788.293335 525.165466,789.832764 
	C526.218994,789.315491 527.291138,788.871826 528.282471,788.290405 
	C547.961731,776.750183 567.656921,765.236938 587.297546,753.631348 
	C619.551392,734.572632 651.773193,715.459595 684.000000,696.355042 
	C708.921875,681.581177 733.833618,666.790161 758.739136,651.988708 
	C760.436218,650.980225 762.526001,650.076355 762.556702,647.738037 
	C762.656250,640.165588 762.593872,632.591003 762.593872,625.041504 
	C760.544250,624.828796 759.786377,625.807251 758.835815,626.419434 
	C743.158936,636.513184 727.558655,646.730591 711.726379,656.574707 
	C707.639282,659.116028 704.838501,661.631775 703.214905,666.578186 
	C697.070068,685.298584 676.617126,691.997437 659.495178,684.872986 
	C657.533630,684.056702 655.720337,682.524902 652.781189,684.279053 
M154.322784,444.499939 
	C154.326004,459.150604 154.649628,473.811310 154.189148,488.447388 
	C153.977859,495.162964 155.151199,500.244110 161.509399,503.642120 
	C164.091675,505.022125 166.066010,505.761871 168.839676,504.435333 
	C187.448196,495.535431 206.087860,486.699615 224.773041,477.962006 
	C227.564056,476.656891 228.852753,474.936462 228.738922,471.828949 
	C228.574478,467.340027 228.480255,462.825836 228.773209,458.349701 
	C229.028061,454.455688 227.391220,452.364502 224.064850,450.530823 
	C203.374344,439.124817 182.778290,427.546936 162.186218,415.963287 
	C156.678619,412.865112 154.435242,414.058624 154.364609,420.525238 
	C154.280945,428.182709 154.331589,435.841644 154.322784,444.499939 
M864.652161,483.489380 
	C864.652527,462.671844 864.661499,441.854309 864.648682,421.036774 
	C864.644104,413.682678 863.127136,412.749176 856.913574,416.250336 
	C839.514648,426.054230 822.585022,436.851410 804.567566,445.340698 
	C792.512573,451.020630 788.244385,458.497955 790.064453,471.132935 
	C790.633240,475.081207 791.514282,477.420959 795.231812,479.057312 
	C813.954712,487.298889 832.590149,495.739136 851.247742,504.128693 
	C852.979126,504.907166 854.454224,505.304474 856.361877,504.131195 
	C861.892517,500.729584 866.305725,496.918945 864.706238,489.468170 
	C864.364380,487.875793 864.653320,486.148010 864.652161,483.489380 
M844.691895,532.247864 
	C832.587646,525.591309 819.622009,520.822510 807.084290,515.116272 
	C801.868347,512.742371 796.543884,510.606903 790.697510,508.119995 
	C790.697510,528.979553 790.697510,548.897949 790.697510,569.410461 
	C792.672546,568.364319 794.040344,567.772034 795.270142,566.968445 
	C811.143799,556.596619 826.999817,546.197876 842.852173,535.793579 
	C843.941345,535.078735 845.249084,534.467285 844.691895,532.247864 
M228.696426,530.500000 
	C228.696426,522.948547 228.696426,515.397095 228.696426,506.490356 
	C209.949280,516.154968 191.609818,523.111938 174.391235,532.372437 
	C174.420639,533.003967 174.450058,533.635498 174.479462,534.267029 
	C192.140549,545.808716 209.801636,557.350403 227.599899,568.981750 
	C228.277054,567.569458 228.539413,567.276489 228.541077,566.982117 
	C228.607529,555.154846 228.650391,543.327393 228.696426,530.500000 
M885.693298,533.126770 
	C888.165039,529.021179 887.831970,525.267944 884.247314,521.957397 
	C881.252502,519.191589 877.853638,518.516541 874.172302,520.367920 
	C870.272217,522.329346 868.989014,525.768188 869.346436,529.902283 
	C869.655762,533.478821 872.030090,535.373962 875.110657,536.708313 
	C879.374390,538.555176 882.420959,536.521912 885.693298,533.126770 
M670.319275,661.433472 
	C671.309692,661.513245 672.300415,661.664978 673.290466,661.660522 
	C678.013611,661.639282 680.779907,659.073364 681.514893,654.607422 
	C682.236267,650.224548 680.554138,646.481750 676.371887,644.857056 
	C672.285034,643.269470 668.489258,644.559326 665.844421,648.242615 
	C662.643555,652.700134 664.093506,657.543701 670.319275,661.433472 
M350.351624,661.073730 
	C354.475342,658.854797 356.646606,655.608154 355.210480,650.851807 
	C354.065643,647.060242 351.631805,644.506470 347.365784,644.366028 
	C342.213470,644.196472 338.237000,648.227051 338.332428,653.477295 
	C338.431946,658.956055 342.753693,661.968262 350.351624,661.073730 
M668.158936,501.456329 
	C663.465393,505.954956 662.990662,511.625916 667.004150,515.251343 
	C670.868774,518.742310 676.633667,518.215515 679.707397,513.974365 
	C681.938904,510.895294 682.510498,507.593811 680.211853,504.249512 
	C677.318909,500.040497 673.406128,499.336548 668.158936,501.456329 
M138.221222,519.584229 
	C132.824265,522.230591 131.348511,524.778442 132.336594,530.176941 
	C133.052872,534.090393 135.611313,536.250916 139.479477,536.718018 
	C144.524506,537.327209 149.218781,533.603149 149.353195,529.045532 
	C149.513901,523.596985 145.248993,519.651978 138.221222,519.584229 
M353.238586,514.693848 
	C353.650146,514.176025 354.138489,513.701782 354.461060,513.133545 
	C356.915833,508.808868 355.459381,503.479950 351.217346,501.157166 
	C347.345245,499.036957 340.994415,501.376709 338.974670,505.667572 
	C337.107391,509.634491 339.399139,514.482849 343.934387,516.599487 
	C347.257874,518.150635 350.009979,517.085083 353.238586,514.693848 
M871.899414,389.449982 
	C874.769043,392.649567 878.148743,393.567963 882.174500,391.817169 
	C885.621521,390.318115 887.299561,387.357758 887.360779,383.969666 
	C887.424561,380.440765 885.116821,377.878052 881.962036,376.222382 
	C878.435486,374.371674 875.438904,375.811523 872.844055,378.017700 
	C869.232361,381.088379 869.625671,384.932343 871.899414,389.449982 
M148.798492,386.516083 
	C149.601349,384.672363 149.066498,382.885406 148.413773,381.181824 
	C146.491547,376.165070 141.849487,374.051941 137.173172,375.971680 
	C132.944885,377.707489 130.931900,382.973358 132.989532,387.282013 
	C134.344742,390.119751 136.532532,392.277985 139.773987,392.551331 
	C143.868530,392.896606 146.700790,390.728882 148.798492,386.516083 
M785.812744,606.372742 
	C785.755737,605.550354 785.890808,604.654236 785.608398,603.918274 
	C784.388611,600.738953 784.823181,595.414246 779.857910,596.103760 
	C775.715637,596.678955 775.019958,601.514954 774.230103,605.143250 
	C773.617615,607.956604 774.623840,610.469788 777.894653,611.172180 
	C779.949463,611.613464 781.723633,613.150330 783.959534,612.813171 
	C785.457642,611.144897 785.350830,609.076660 785.812744,606.372742 
z"/>
<path fill="#000000" opacity="1.000000" stroke="none" 
	d="
M562.255493,231.233826 
	C543.437988,251.523422 524.855774,271.545837 506.261414,291.557068 
	C505.014374,292.899139 503.694031,294.175018 502.376740,295.449615 
	C494.276855,303.287018 485.793152,303.283691 478.018860,294.995331 
	C469.587128,286.006073 461.461243,276.729279 453.234314,267.548889 
	C449.790131,263.705566 446.160614,259.987427 443.090179,255.859192 
	C437.856689,248.822754 438.427643,241.049149 444.101562,236.064072 
	C449.943024,230.931793 458.130371,231.269562 464.296448,237.587173 
	C471.855682,245.332169 479.051392,253.440659 486.215057,261.558929 
	C489.238068,264.984772 491.274384,265.040833 494.539612,261.536743 
	C514.073730,240.573669 533.806580,219.794998 553.581482,199.058121 
	C556.756653,195.728500 559.914612,192.173492 564.793701,191.057480 
	C570.950073,189.649292 577.269470,192.026657 580.517212,197.129776 
	C583.705933,202.140106 583.100525,208.131317 578.615967,213.213150 
	C573.326782,219.206741 567.871338,225.053574 562.255493,231.233826 
z"/>
</svg>